<svg width="744" height="674" viewBox="0 0 744 674" fill="none" xmlns="http://www.w3.org/2000/svg">
<rect x="69" y="443" width="142.929" height="5.87358" rx="2.93679" fill="#0059D6"/>
<path d="M476.47 418.484C476.566 418.364 476.662 418.232 476.758 418.088C476.854 417.944 476.95 417.812 477.046 417.692C477.166 417.572 477.274 417.512 477.37 417.512C477.586 417.512 478.054 417.86 478.774 418.556C479.518 419.228 479.89 419.696 479.89 419.96C479.794 420.32 479.494 420.5 478.99 420.5H474.67V431.516L479.242 430.364C479.626 428.948 479.878 427.448 479.998 425.864C480.118 424.256 480.178 422.408 480.178 420.32V414.344C480.178 411.776 480.046 409.736 479.782 408.224L482.662 409.52H490.51C490.486 408.272 490.474 406.34 490.474 403.724C492.634 404.324 493.714 404.78 493.714 405.092C493.714 405.188 493.606 405.32 493.39 405.488L492.814 405.92L492.778 409.52H494.686L495.622 408.368L495.442 408.26C495.346 407.756 495.118 407.228 494.758 406.676C494.398 406.1 494.026 405.644 493.642 405.308L493.966 405.02C495.118 405.212 495.958 405.536 496.486 405.992C497.014 406.448 497.278 406.928 497.278 407.432C497.278 407.768 497.17 408.044 496.954 408.26C497.842 408.98 498.526 409.568 499.006 410.024C498.91 410.408 498.622 410.6 498.142 410.6H492.778C492.826 415.664 493.102 419.768 493.606 422.912C493.75 422.576 493.846 422.324 493.894 422.156C494.302 421.052 494.638 419.828 494.902 418.484C495.166 417.116 495.298 415.928 495.298 414.92C497.53 415.568 498.646 416.036 498.646 416.324C498.646 416.42 498.538 416.492 498.322 416.54L497.674 416.72C496.93 420.2 495.778 423.32 494.218 426.08C494.842 428.576 495.646 430.592 496.63 432.128C496.846 432.464 496.99 432.632 497.062 432.632C497.134 432.632 497.194 432.572 497.242 432.452C497.29 432.332 497.35 432.188 497.422 432.02C497.83 431.156 498.262 429.848 498.718 428.096L499.15 428.168L498.574 433.856C499.03 434.84 499.258 435.536 499.258 435.944C499.258 436.184 499.186 436.352 499.042 436.448C498.85 436.64 498.598 436.736 498.286 436.736C497.806 436.736 497.266 436.496 496.666 436.016C496.09 435.56 495.622 435.02 495.262 434.396C494.182 432.644 493.33 430.652 492.706 428.42C490.09 431.948 486.682 434.636 482.482 436.484L482.194 435.944C486.394 433.616 489.694 430.328 492.094 426.08C491.23 422.192 490.714 417.032 490.546 410.6H482.23V420.284C482.23 422.66 482.11 424.772 481.87 426.62C481.63 428.468 481.102 430.292 480.286 432.092C479.47 433.868 478.258 435.428 476.65 436.772L476.182 436.376C477.406 434.912 478.342 433.172 478.99 431.156C475.87 432.572 472.63 433.952 469.27 435.296C469.102 435.776 468.85 436.064 468.514 436.16L467.362 433.208C468.202 433.064 469.942 432.68 472.582 432.056V420.5H470.926C470.038 420.524 469.102 420.692 468.118 421.004L467.182 419.168C468.19 419.312 469.414 419.408 470.854 419.456H472.582V414.524H469.486L469.342 414.056C468.646 414.824 467.962 415.496 467.29 416.072L466.822 415.712C467.95 414.368 469.054 412.604 470.134 410.42C470.686 409.316 471.166 408.116 471.574 406.82C471.982 405.524 472.234 404.396 472.33 403.436L476.29 404.588C476.17 405.02 475.726 405.248 474.958 405.272L474.922 405.308C476.626 406.196 477.862 407.084 478.63 407.972C479.398 408.86 479.782 409.664 479.782 410.384C479.782 410.792 479.662 411.128 479.422 411.392C479.206 411.656 478.942 411.788 478.63 411.788C478.294 411.788 477.994 411.644 477.73 411.356C477.538 410.516 477.178 409.592 476.65 408.584C476.146 407.576 475.522 406.628 474.778 405.74C473.386 408.644 471.742 411.212 469.846 413.444H475.354L475.966 412.508C476.038 412.412 476.134 412.28 476.254 412.112C476.398 411.92 476.506 411.788 476.578 411.716C476.674 411.62 476.77 411.572 476.866 411.572C477.082 411.572 477.538 411.908 478.234 412.58C478.954 413.228 479.314 413.684 479.314 413.948C479.242 414.332 478.966 414.524 478.486 414.524H474.67V419.456H475.822L476.47 418.484ZM485.398 415.316C484.87 415.34 484.294 415.508 483.67 415.82L482.734 413.984C483.478 414.128 484.39 414.224 485.47 414.272H486.694L487.27 413.372C487.342 413.252 487.438 413.12 487.558 412.976C487.678 412.808 487.774 412.688 487.846 412.616C487.918 412.52 488.002 412.472 488.098 412.472C488.314 412.472 488.758 412.784 489.43 413.408C490.102 414.032 490.438 414.476 490.438 414.74C490.366 415.124 490.09 415.316 489.61 415.316H485.398ZM487.378 418.7C487.81 418.22 488.17 417.788 488.458 417.404C489.154 417.98 489.634 418.424 489.898 418.736C490.186 419.048 490.33 419.288 490.33 419.456C490.33 419.576 490.222 419.684 490.006 419.78L489.43 419.96V422.768C489.478 425.048 489.55 426.836 489.646 428.132C489.526 428.348 489.274 428.552 488.89 428.744C488.53 428.912 488.194 428.996 487.882 428.996C487.786 428.996 487.702 428.924 487.63 428.78C487.558 428.636 487.522 428.468 487.522 428.276C487.522 428.276 487.57 428.084 487.666 427.7V427.016H485.29V427.808C485.314 428.12 485.326 428.396 485.326 428.636C485.35 428.876 485.374 429.056 485.398 429.176C485.35 429.392 485.158 429.584 484.822 429.752C484.486 429.92 484.138 430.004 483.778 430.004C483.658 430.004 483.55 429.932 483.454 429.788C483.358 429.644 483.31 429.476 483.31 429.284C483.406 428.372 483.478 427.256 483.526 425.936V423.884C483.526 421.244 483.394 419.144 483.13 417.584L485.434 418.7H487.378ZM485.29 419.744V425.972H487.666V419.744H485.29ZM478.162 422.624C479.074 422.72 479.53 422.876 479.53 423.092C479.53 423.212 479.41 423.332 479.17 423.452L478.594 423.74C477.826 426.308 476.962 428.36 476.002 429.896L475.426 429.644L475.498 429.392C475.762 428.264 475.954 427.016 476.074 425.648C476.194 424.256 476.23 423.044 476.182 422.012L478.162 422.624ZM468.694 422.588C469.678 423.596 470.398 424.592 470.854 425.576C471.31 426.56 471.538 427.448 471.538 428.24C471.538 428.816 471.43 429.284 471.214 429.644C471.022 430.004 470.77 430.184 470.458 430.184C470.17 430.184 469.882 430.028 469.594 429.716C469.666 428.708 469.558 427.568 469.27 426.296C468.982 425.024 468.622 423.848 468.19 422.768L468.694 422.588ZM521.362 406.64C521.458 406.568 521.614 406.424 521.83 406.208C522.046 405.992 522.226 405.884 522.37 405.884C522.586 405.884 523.042 406.232 523.738 406.928C524.458 407.624 524.818 408.104 524.818 408.368C524.554 408.632 524.062 408.776 523.342 408.8C522.982 409.4 522.502 410.12 521.902 410.96C523.726 414.464 528.142 417.008 535.15 418.592L535.114 418.988C534.49 419.084 534.01 419.264 533.674 419.528C533.338 419.792 533.122 420.224 533.026 420.824C529.642 419.816 527.05 418.52 525.25 416.936C523.45 415.352 522.154 413.588 521.362 411.644C519.37 414.188 516.874 416.384 513.874 418.232C510.874 420.056 507.418 421.46 503.506 422.444L503.254 421.868C507.166 420.5 510.622 418.664 513.622 416.36C516.622 414.032 518.902 411.404 520.462 408.476H514.09C512.818 409.916 511.366 411.248 509.734 412.472C508.102 413.696 506.41 414.692 504.658 415.46L504.298 414.92C506.506 413.528 508.522 411.776 510.346 409.664C511.138 408.752 511.87 407.708 512.542 406.532C513.214 405.332 513.67 404.252 513.91 403.292C516.31 404.156 517.51 404.72 517.51 404.984C517.51 405.056 517.402 405.116 517.186 405.164L516.574 405.236C516.046 406.028 515.53 406.748 515.026 407.396H520.642L521.362 406.64ZM522.982 428.24C523.342 427.856 523.702 427.424 524.062 426.944C524.854 425.984 525.61 424.928 526.33 423.776C527.074 422.624 527.614 421.604 527.95 420.716C530.134 422.18 531.226 423.056 531.226 423.344C531.226 423.464 531.106 423.524 530.866 423.524L530.218 423.56C529.354 424.352 528.286 425.228 527.014 426.188C525.766 427.124 524.554 427.964 523.378 428.708C524.554 430.028 526.078 431.168 527.95 432.128C529.846 433.088 532.21 433.892 535.042 434.54L534.97 434.972C534.322 435.068 533.806 435.248 533.422 435.512C533.062 435.8 532.822 436.256 532.702 436.88C529.75 435.992 527.362 434.876 525.538 433.532C523.738 432.164 522.382 430.604 521.47 428.852C520.558 427.076 519.91 424.988 519.526 422.588C519.286 424.82 518.734 426.764 517.87 428.42C517.006 430.076 515.458 431.624 513.226 433.064C510.994 434.48 507.826 435.716 503.722 436.772L503.398 436.16C506.398 435.2 508.81 434.144 510.634 432.992C512.482 431.816 513.862 430.568 514.774 429.248C515.71 427.928 516.358 426.452 516.718 424.82C516.934 423.86 517.042 422.708 517.042 421.364C517.042 420.212 516.958 419.024 516.79 417.8C518.182 417.944 519.154 418.088 519.706 418.232C520.258 418.352 520.534 418.484 520.534 418.628C520.534 418.676 520.486 418.736 520.39 418.808C520.318 418.856 520.27 418.892 520.246 418.916L519.706 419.276C519.946 421.172 520.318 422.852 520.822 424.316C521.326 425.756 522.046 427.064 522.982 428.24ZM511.678 421.796C511.75 422.324 511.786 422.828 511.786 423.308C511.786 424.724 511.498 425.912 510.922 426.872C510.346 427.832 509.674 428.528 508.906 428.96C508.426 429.224 507.946 429.356 507.466 429.356C506.89 429.356 506.53 429.164 506.386 428.78C506.338 428.684 506.314 428.54 506.314 428.348C506.314 428.108 506.398 427.868 506.566 427.628C506.734 427.388 506.962 427.184 507.25 427.016C508.186 426.632 509.038 425.972 509.806 425.036C510.574 424.076 510.994 422.984 511.066 421.76L511.678 421.796ZM567.838 407.72C567.91 407.648 568.006 407.516 568.126 407.324C568.27 407.132 568.39 407 568.486 406.928C568.582 406.832 568.678 406.784 568.774 406.784C568.99 406.784 569.47 407.216 570.214 408.08C570.982 408.92 571.366 409.472 571.366 409.736C571.246 409.88 571.09 409.976 570.898 410.024C570.706 410.072 570.442 410.108 570.106 410.132C569.698 410.54 569.17 410.996 568.522 411.5C567.898 412.004 567.334 412.424 566.83 412.76L566.362 412.544C566.578 412.016 566.89 411.056 567.298 409.664H552.826C552.802 410.432 552.682 411.116 552.466 411.716C552.274 412.316 552.01 412.784 551.674 413.12C551.266 413.48 550.834 413.66 550.378 413.66C549.922 413.66 549.586 413.468 549.37 413.084C549.298 412.892 549.262 412.712 549.262 412.544C549.262 412.28 549.334 412.028 549.478 411.788C549.646 411.524 549.862 411.296 550.126 411.104C550.606 410.696 551.002 410.06 551.314 409.196C551.65 408.308 551.782 407.444 551.71 406.604H552.322C552.538 407.324 552.682 407.996 552.754 408.62H558.406C558.406 406.556 558.31 404.912 558.118 403.688C560.398 404.36 561.538 404.864 561.538 405.2C561.538 405.32 561.442 405.44 561.25 405.56L560.638 405.956V408.62H567.19L567.838 407.72ZM542.782 427.412C542.83 430.388 542.926 433.208 543.07 435.872C542.542 436.544 541.858 436.88 541.018 436.88C540.85 436.88 540.682 436.796 540.514 436.628C540.37 436.484 540.298 436.328 540.298 436.16C540.394 434.744 540.478 433.376 540.55 432.056C540.622 430.712 540.67 428.96 540.694 426.8V412.112C540.694 409.088 540.538 406.628 540.226 404.732L543.25 406.064H546.958L547.606 405.344C547.702 405.248 547.834 405.104 548.002 404.912C548.194 404.696 548.362 404.588 548.506 404.588C548.722 404.588 549.202 404.984 549.946 405.776C550.69 406.544 551.062 407.06 551.062 407.324C550.966 407.468 550.798 407.576 550.558 407.648C550.318 407.696 549.97 407.732 549.514 407.756C547.69 411.548 546.25 414.2 545.194 415.712C548.098 418.088 549.55 420.836 549.55 423.956C549.55 425.564 549.226 426.752 548.578 427.52C547.93 428.264 546.85 428.672 545.338 428.744C545.338 427.832 545.23 427.232 545.014 426.944C544.726 426.656 544.186 426.476 543.394 426.404V425.864H545.59C545.95 425.864 546.25 425.792 546.49 425.648C547.018 425.312 547.282 424.544 547.282 423.344C547.282 420.584 546.31 418.076 544.366 415.82C544.918 414.38 545.818 411.476 547.066 407.108H542.782V427.412ZM557.074 415.712C555.514 415.736 553.906 415.904 552.25 416.216L551.314 414.38C552.634 414.524 554.23 414.62 556.102 414.668H564.022L564.67 413.696C564.742 413.6 564.838 413.456 564.958 413.264C565.102 413.072 565.222 412.928 565.318 412.832C565.414 412.736 565.51 412.688 565.606 412.688C565.75 412.688 566.05 412.856 566.506 413.192C566.962 413.528 567.382 413.9 567.766 414.308C568.15 414.692 568.342 414.968 568.342 415.136C568.246 415.52 567.946 415.712 567.442 415.712H557.074ZM567.19 419.42C567.286 419.3 567.394 419.144 567.514 418.952C567.658 418.736 567.778 418.58 567.874 418.484C567.97 418.388 568.066 418.34 568.162 418.34C568.306 418.34 568.606 418.52 569.062 418.88C569.542 419.24 569.974 419.636 570.358 420.068C570.766 420.476 570.97 420.764 570.97 420.932C570.898 421.316 570.61 421.508 570.106 421.508H563.446V433.208C563.446 433.448 563.506 433.616 563.626 433.712C563.746 433.784 564.01 433.82 564.418 433.82H566.47C567.574 433.82 568.234 433.808 568.45 433.784C568.594 433.784 568.69 433.76 568.738 433.712C568.81 433.664 568.894 433.556 568.99 433.388C569.134 433.028 569.386 431.792 569.746 429.68L569.926 428.744H570.358L570.466 433.532C570.778 433.676 570.994 433.832 571.114 434C571.234 434.144 571.294 434.324 571.294 434.54C571.294 435.044 570.958 435.404 570.286 435.62C569.614 435.86 568.33 435.98 566.434 435.98H563.914C563.17 435.98 562.618 435.908 562.258 435.764C561.898 435.62 561.646 435.392 561.502 435.08C561.382 434.792 561.322 434.348 561.322 433.748V421.508H557.578C557.41 424.364 556.966 426.74 556.246 428.636C555.55 430.532 554.422 432.14 552.862 433.46C551.326 434.78 549.202 435.884 546.49 436.772L546.274 436.196C548.554 435.116 550.318 433.916 551.566 432.596C552.814 431.252 553.702 429.716 554.23 427.988C554.758 426.236 555.07 424.076 555.166 421.508H553.474C552.538 421.532 551.578 421.7 550.594 422.012L549.658 420.176C550.978 420.32 552.574 420.416 554.446 420.464H566.506L567.19 419.42Z" fill="black"/>
<path d="M212 446L470.293 446.012" stroke="#9D9D9D"/>
<path d="M71.1486 397C70.262 397 69.8186 396.113 69.8186 394.34C69.8186 392.567 70.262 391.68 71.1486 391.68H74.1886C80.0153 391.68 84.132 390.793 86.5386 389.02C89.072 387.247 90.3386 384.143 90.3386 379.71V276.35C90.3386 271.917 89.0086 268.813 86.3486 267.04C83.8153 265.267 79.762 264.38 74.1886 264.38H71.1486C70.262 264.38 69.8186 263.493 69.8186 261.72C69.8186 259.947 70.262 259.06 71.1486 259.06L104.399 258.87C116.685 258.87 125.679 258.933 131.379 259.06C144.552 259.313 155.445 262.353 164.059 268.18C172.672 274.007 176.979 281.797 176.979 291.55C176.979 299.91 173.559 306.687 166.719 311.88C159.879 317.073 151.265 320.873 140.879 323.28C153.165 325.813 163.552 330.057 172.039 336.01C180.525 341.837 184.769 349.5 184.769 359C184.769 366.853 182.425 373.693 177.739 379.52C173.179 385.22 167.035 389.59 159.309 392.63C151.582 395.543 143.032 397 133.659 397H105.159H71.1486ZM110.669 320.62C129.035 320.62 141.702 317.96 148.669 312.64C155.762 307.32 159.309 300.037 159.309 290.79C159.309 282.937 155.952 276.603 149.239 271.79C142.652 266.85 133.215 264.38 120.929 264.38C115.482 264.38 111.555 265.33 109.149 267.23C106.869 269.003 105.729 272.043 105.729 276.35V320.62H110.669ZM122.449 391.68C135.242 391.68 145.819 388.957 154.179 383.51C162.665 377.937 166.909 369.703 166.909 358.81C166.909 337.023 148.162 326.13 110.669 326.13H105.729V379.71C105.729 384.27 106.995 387.437 109.529 389.21C112.062 390.857 116.179 391.68 121.879 391.68H122.449ZM253.324 279.77C250.158 279.77 247.498 278.693 245.344 276.54C243.191 274.387 242.114 271.727 242.114 268.56C242.114 265.393 243.191 262.733 245.344 260.58C247.498 258.427 250.158 257.35 253.324 257.35C256.491 257.35 259.151 258.427 261.304 260.58C263.458 262.733 264.534 265.393 264.534 268.56C264.534 271.727 263.458 274.387 261.304 276.54C259.151 278.693 256.491 279.77 253.324 279.77ZM233.374 397C232.361 397 231.854 396.113 231.854 394.34C231.854 392.567 232.361 391.68 233.374 391.68H235.844C239.518 391.68 242.431 391.173 244.584 390.16C246.864 389.147 248.004 386.993 248.004 383.7L247.434 325.75C247.434 323.09 246.801 321.127 245.534 319.86C244.394 318.593 243.001 317.833 241.354 317.58C239.834 317.2 237.111 316.757 233.184 316.25C232.424 316.123 231.918 315.933 231.664 315.68C231.538 315.427 231.474 314.857 231.474 313.97C231.474 313.337 231.538 312.767 231.664 312.26C231.791 311.753 232.044 311.437 232.424 311.31C234.324 310.55 243.951 308.143 261.304 304.09L261.114 383.7C261.114 386.993 262.191 389.147 264.344 390.16C266.624 391.173 269.664 391.68 273.464 391.68H275.934C276.821 391.68 277.264 392.567 277.264 394.34C277.264 396.113 276.821 397 275.934 397H233.374ZM385.827 399.66C375.947 399.66 366.194 396.937 356.567 391.49C347.067 385.917 339.214 377.747 333.007 366.98C326.801 356.213 323.697 343.357 323.697 328.41C323.697 313.59 326.801 300.797 333.007 290.03C339.214 279.263 347.067 271.157 356.567 265.71C366.194 260.137 375.947 257.35 385.827 257.35C395.707 257.35 405.397 260.137 414.897 265.71C424.397 271.157 432.251 279.263 438.457 290.03C444.664 300.797 447.767 313.59 447.767 328.41C447.767 343.357 444.664 356.213 438.457 366.98C432.251 377.747 424.397 385.917 414.897 391.49C405.397 396.937 395.707 399.66 385.827 399.66ZM385.827 393.39C393.427 393.39 400.584 390.983 407.297 386.17C414.137 381.23 419.647 373.883 423.827 364.13C428.134 354.25 430.287 342.343 430.287 328.41C430.287 314.603 428.134 302.823 423.827 293.07C419.647 283.317 414.137 276.033 407.297 271.22C400.584 266.28 393.427 263.81 385.827 263.81C378.227 263.81 371.007 266.28 364.167 271.22C357.327 276.033 351.817 283.317 347.637 293.07C343.457 302.823 341.367 314.603 341.367 328.41C341.367 342.343 343.457 354.25 347.637 364.13C351.817 373.883 357.327 381.23 364.167 386.17C371.007 390.983 378.227 393.39 385.827 393.39Z" fill="#0059D6"/>
<mask id="path-5-inside-1_1135_10" fill="white">
<path d="M89.7162 478.534C122.573 548.292 178.715 604.918 248.829 639.02C318.943 673.121 398.815 682.648 475.197 666.021C551.58 649.393 619.881 607.61 668.772 547.603C717.664 487.595 744.207 412.969 743.999 336.103C743.791 259.238 716.844 184.752 667.628 125C618.412 65.2493 549.886 23.824 473.414 7.59598C396.943 -8.63203 317.124 1.31249 247.195 35.78C177.267 70.2475 121.433 127.167 88.9541 197.096L90.5774 197.824C122.887 128.258 178.431 71.6351 247.995 37.3469C317.56 3.05871 396.964 -6.83407 473.038 9.30952C549.111 25.4531 617.281 66.6629 666.241 126.103C715.201 185.544 742.007 259.642 742.215 336.108C742.422 412.574 716.017 486.812 667.38 546.507C618.742 606.203 550.796 647.768 474.811 664.309C398.827 680.85 319.37 671.373 249.62 637.449C179.871 603.525 124.022 547.193 91.3355 477.797L89.7162 478.534Z"/>
</mask>
<path d="M89.7162 478.534C122.573 548.292 178.715 604.918 248.829 639.02C318.943 673.121 398.815 682.648 475.197 666.021C551.58 649.393 619.881 607.61 668.772 547.603C717.664 487.595 744.207 412.969 743.999 336.103C743.791 259.238 716.844 184.752 667.628 125C618.412 65.2493 549.886 23.824 473.414 7.59598C396.943 -8.63203 317.124 1.31249 247.195 35.78C177.267 70.2475 121.433 127.167 88.9541 197.096L90.5774 197.824C122.887 128.258 178.431 71.6351 247.995 37.3469C317.56 3.05871 396.964 -6.83407 473.038 9.30952C549.111 25.4531 617.281 66.6629 666.241 126.103C715.201 185.544 742.007 259.642 742.215 336.108C742.422 412.574 716.017 486.812 667.38 546.507C618.742 606.203 550.796 647.768 474.811 664.309C398.827 680.85 319.37 671.373 249.62 637.449C179.871 603.525 124.022 547.193 91.3355 477.797L89.7162 478.534Z" stroke="black" stroke-width="2" mask="url(#path-5-inside-1_1135_10)"/>
</svg>
