<svg width="689" height="674" viewBox="0 0 689 674" fill="none" xmlns="http://www.w3.org/2000/svg">
<ellipse cx="346" cy="337" rx="343" ry="337" fill="#F5F5EF"/>
<rect x="14" y="443" width="142.929" height="5.87358" rx="2.93679" fill="#0059D6"/>
<path d="M421.47 418.484C421.566 418.364 421.662 418.232 421.758 418.088C421.854 417.944 421.95 417.812 422.046 417.692C422.166 417.572 422.274 417.512 422.37 417.512C422.586 417.512 423.054 417.86 423.774 418.556C424.518 419.228 424.89 419.696 424.89 419.96C424.794 420.32 424.494 420.5 423.99 420.5H419.67V431.516L424.242 430.364C424.626 428.948 424.878 427.448 424.998 425.864C425.118 424.256 425.178 422.408 425.178 420.32V414.344C425.178 411.776 425.046 409.736 424.782 408.224L427.662 409.52H435.51C435.486 408.272 435.474 406.34 435.474 403.724C437.634 404.324 438.714 404.78 438.714 405.092C438.714 405.188 438.606 405.32 438.39 405.488L437.814 405.92L437.778 409.52H439.686L440.622 408.368L440.442 408.26C440.346 407.756 440.118 407.228 439.758 406.676C439.398 406.1 439.026 405.644 438.642 405.308L438.966 405.02C440.118 405.212 440.958 405.536 441.486 405.992C442.014 406.448 442.278 406.928 442.278 407.432C442.278 407.768 442.17 408.044 441.954 408.26C442.842 408.98 443.526 409.568 444.006 410.024C443.91 410.408 443.622 410.6 443.142 410.6H437.778C437.826 415.664 438.102 419.768 438.606 422.912C438.75 422.576 438.846 422.324 438.894 422.156C439.302 421.052 439.638 419.828 439.902 418.484C440.166 417.116 440.298 415.928 440.298 414.92C442.53 415.568 443.646 416.036 443.646 416.324C443.646 416.42 443.538 416.492 443.322 416.54L442.674 416.72C441.93 420.2 440.778 423.32 439.218 426.08C439.842 428.576 440.646 430.592 441.63 432.128C441.846 432.464 441.99 432.632 442.062 432.632C442.134 432.632 442.194 432.572 442.242 432.452C442.29 432.332 442.35 432.188 442.422 432.02C442.83 431.156 443.262 429.848 443.718 428.096L444.15 428.168L443.574 433.856C444.03 434.84 444.258 435.536 444.258 435.944C444.258 436.184 444.186 436.352 444.042 436.448C443.85 436.64 443.598 436.736 443.286 436.736C442.806 436.736 442.266 436.496 441.666 436.016C441.09 435.56 440.622 435.02 440.262 434.396C439.182 432.644 438.33 430.652 437.706 428.42C435.09 431.948 431.682 434.636 427.482 436.484L427.194 435.944C431.394 433.616 434.694 430.328 437.094 426.08C436.23 422.192 435.714 417.032 435.546 410.6H427.23V420.284C427.23 422.66 427.11 424.772 426.87 426.62C426.63 428.468 426.102 430.292 425.286 432.092C424.47 433.868 423.258 435.428 421.65 436.772L421.182 436.376C422.406 434.912 423.342 433.172 423.99 431.156C420.87 432.572 417.63 433.952 414.27 435.296C414.102 435.776 413.85 436.064 413.514 436.16L412.362 433.208C413.202 433.064 414.942 432.68 417.582 432.056V420.5H415.926C415.038 420.524 414.102 420.692 413.118 421.004L412.182 419.168C413.19 419.312 414.414 419.408 415.854 419.456H417.582V414.524H414.486L414.342 414.056C413.646 414.824 412.962 415.496 412.29 416.072L411.822 415.712C412.95 414.368 414.054 412.604 415.134 410.42C415.686 409.316 416.166 408.116 416.574 406.82C416.982 405.524 417.234 404.396 417.33 403.436L421.29 404.588C421.17 405.02 420.726 405.248 419.958 405.272L419.922 405.308C421.626 406.196 422.862 407.084 423.63 407.972C424.398 408.86 424.782 409.664 424.782 410.384C424.782 410.792 424.662 411.128 424.422 411.392C424.206 411.656 423.942 411.788 423.63 411.788C423.294 411.788 422.994 411.644 422.73 411.356C422.538 410.516 422.178 409.592 421.65 408.584C421.146 407.576 420.522 406.628 419.778 405.74C418.386 408.644 416.742 411.212 414.846 413.444H420.354L420.966 412.508C421.038 412.412 421.134 412.28 421.254 412.112C421.398 411.92 421.506 411.788 421.578 411.716C421.674 411.62 421.77 411.572 421.866 411.572C422.082 411.572 422.538 411.908 423.234 412.58C423.954 413.228 424.314 413.684 424.314 413.948C424.242 414.332 423.966 414.524 423.486 414.524H419.67V419.456H420.822L421.47 418.484ZM430.398 415.316C429.87 415.34 429.294 415.508 428.67 415.82L427.734 413.984C428.478 414.128 429.39 414.224 430.47 414.272H431.694L432.27 413.372C432.342 413.252 432.438 413.12 432.558 412.976C432.678 412.808 432.774 412.688 432.846 412.616C432.918 412.52 433.002 412.472 433.098 412.472C433.314 412.472 433.758 412.784 434.43 413.408C435.102 414.032 435.438 414.476 435.438 414.74C435.366 415.124 435.09 415.316 434.61 415.316H430.398ZM432.378 418.7C432.81 418.22 433.17 417.788 433.458 417.404C434.154 417.98 434.634 418.424 434.898 418.736C435.186 419.048 435.33 419.288 435.33 419.456C435.33 419.576 435.222 419.684 435.006 419.78L434.43 419.96V422.768C434.478 425.048 434.55 426.836 434.646 428.132C434.526 428.348 434.274 428.552 433.89 428.744C433.53 428.912 433.194 428.996 432.882 428.996C432.786 428.996 432.702 428.924 432.63 428.78C432.558 428.636 432.522 428.468 432.522 428.276C432.522 428.276 432.57 428.084 432.666 427.7V427.016H430.29V427.808C430.314 428.12 430.326 428.396 430.326 428.636C430.35 428.876 430.374 429.056 430.398 429.176C430.35 429.392 430.158 429.584 429.822 429.752C429.486 429.92 429.138 430.004 428.778 430.004C428.658 430.004 428.55 429.932 428.454 429.788C428.358 429.644 428.31 429.476 428.31 429.284C428.406 428.372 428.478 427.256 428.526 425.936V423.884C428.526 421.244 428.394 419.144 428.13 417.584L430.434 418.7H432.378ZM430.29 419.744V425.972H432.666V419.744H430.29ZM423.162 422.624C424.074 422.72 424.53 422.876 424.53 423.092C424.53 423.212 424.41 423.332 424.17 423.452L423.594 423.74C422.826 426.308 421.962 428.36 421.002 429.896L420.426 429.644L420.498 429.392C420.762 428.264 420.954 427.016 421.074 425.648C421.194 424.256 421.23 423.044 421.182 422.012L423.162 422.624ZM413.694 422.588C414.678 423.596 415.398 424.592 415.854 425.576C416.31 426.56 416.538 427.448 416.538 428.24C416.538 428.816 416.43 429.284 416.214 429.644C416.022 430.004 415.77 430.184 415.458 430.184C415.17 430.184 414.882 430.028 414.594 429.716C414.666 428.708 414.558 427.568 414.27 426.296C413.982 425.024 413.622 423.848 413.19 422.768L413.694 422.588ZM466.362 406.64C466.458 406.568 466.614 406.424 466.83 406.208C467.046 405.992 467.226 405.884 467.37 405.884C467.586 405.884 468.042 406.232 468.738 406.928C469.458 407.624 469.818 408.104 469.818 408.368C469.554 408.632 469.062 408.776 468.342 408.8C467.982 409.4 467.502 410.12 466.902 410.96C468.726 414.464 473.142 417.008 480.15 418.592L480.114 418.988C479.49 419.084 479.01 419.264 478.674 419.528C478.338 419.792 478.122 420.224 478.026 420.824C474.642 419.816 472.05 418.52 470.25 416.936C468.45 415.352 467.154 413.588 466.362 411.644C464.37 414.188 461.874 416.384 458.874 418.232C455.874 420.056 452.418 421.46 448.506 422.444L448.254 421.868C452.166 420.5 455.622 418.664 458.622 416.36C461.622 414.032 463.902 411.404 465.462 408.476H459.09C457.818 409.916 456.366 411.248 454.734 412.472C453.102 413.696 451.41 414.692 449.658 415.46L449.298 414.92C451.506 413.528 453.522 411.776 455.346 409.664C456.138 408.752 456.87 407.708 457.542 406.532C458.214 405.332 458.67 404.252 458.91 403.292C461.31 404.156 462.51 404.72 462.51 404.984C462.51 405.056 462.402 405.116 462.186 405.164L461.574 405.236C461.046 406.028 460.53 406.748 460.026 407.396H465.642L466.362 406.64ZM467.982 428.24C468.342 427.856 468.702 427.424 469.062 426.944C469.854 425.984 470.61 424.928 471.33 423.776C472.074 422.624 472.614 421.604 472.95 420.716C475.134 422.18 476.226 423.056 476.226 423.344C476.226 423.464 476.106 423.524 475.866 423.524L475.218 423.56C474.354 424.352 473.286 425.228 472.014 426.188C470.766 427.124 469.554 427.964 468.378 428.708C469.554 430.028 471.078 431.168 472.95 432.128C474.846 433.088 477.21 433.892 480.042 434.54L479.97 434.972C479.322 435.068 478.806 435.248 478.422 435.512C478.062 435.8 477.822 436.256 477.702 436.88C474.75 435.992 472.362 434.876 470.538 433.532C468.738 432.164 467.382 430.604 466.47 428.852C465.558 427.076 464.91 424.988 464.526 422.588C464.286 424.82 463.734 426.764 462.87 428.42C462.006 430.076 460.458 431.624 458.226 433.064C455.994 434.48 452.826 435.716 448.722 436.772L448.398 436.16C451.398 435.2 453.81 434.144 455.634 432.992C457.482 431.816 458.862 430.568 459.774 429.248C460.71 427.928 461.358 426.452 461.718 424.82C461.934 423.86 462.042 422.708 462.042 421.364C462.042 420.212 461.958 419.024 461.79 417.8C463.182 417.944 464.154 418.088 464.706 418.232C465.258 418.352 465.534 418.484 465.534 418.628C465.534 418.676 465.486 418.736 465.39 418.808C465.318 418.856 465.27 418.892 465.246 418.916L464.706 419.276C464.946 421.172 465.318 422.852 465.822 424.316C466.326 425.756 467.046 427.064 467.982 428.24ZM456.678 421.796C456.75 422.324 456.786 422.828 456.786 423.308C456.786 424.724 456.498 425.912 455.922 426.872C455.346 427.832 454.674 428.528 453.906 428.96C453.426 429.224 452.946 429.356 452.466 429.356C451.89 429.356 451.53 429.164 451.386 428.78C451.338 428.684 451.314 428.54 451.314 428.348C451.314 428.108 451.398 427.868 451.566 427.628C451.734 427.388 451.962 427.184 452.25 427.016C453.186 426.632 454.038 425.972 454.806 425.036C455.574 424.076 455.994 422.984 456.066 421.76L456.678 421.796ZM512.838 407.72C512.91 407.648 513.006 407.516 513.126 407.324C513.27 407.132 513.39 407 513.486 406.928C513.582 406.832 513.678 406.784 513.774 406.784C513.99 406.784 514.47 407.216 515.214 408.08C515.982 408.92 516.366 409.472 516.366 409.736C516.246 409.88 516.09 409.976 515.898 410.024C515.706 410.072 515.442 410.108 515.106 410.132C514.698 410.54 514.17 410.996 513.522 411.5C512.898 412.004 512.334 412.424 511.83 412.76L511.362 412.544C511.578 412.016 511.89 411.056 512.298 409.664H497.826C497.802 410.432 497.682 411.116 497.466 411.716C497.274 412.316 497.01 412.784 496.674 413.12C496.266 413.48 495.834 413.66 495.378 413.66C494.922 413.66 494.586 413.468 494.37 413.084C494.298 412.892 494.262 412.712 494.262 412.544C494.262 412.28 494.334 412.028 494.478 411.788C494.646 411.524 494.862 411.296 495.126 411.104C495.606 410.696 496.002 410.06 496.314 409.196C496.65 408.308 496.782 407.444 496.71 406.604H497.322C497.538 407.324 497.682 407.996 497.754 408.62H503.406C503.406 406.556 503.31 404.912 503.118 403.688C505.398 404.36 506.538 404.864 506.538 405.2C506.538 405.32 506.442 405.44 506.25 405.56L505.638 405.956V408.62H512.19L512.838 407.72ZM487.782 427.412C487.83 430.388 487.926 433.208 488.07 435.872C487.542 436.544 486.858 436.88 486.018 436.88C485.85 436.88 485.682 436.796 485.514 436.628C485.37 436.484 485.298 436.328 485.298 436.16C485.394 434.744 485.478 433.376 485.55 432.056C485.622 430.712 485.67 428.96 485.694 426.8V412.112C485.694 409.088 485.538 406.628 485.226 404.732L488.25 406.064H491.958L492.606 405.344C492.702 405.248 492.834 405.104 493.002 404.912C493.194 404.696 493.362 404.588 493.506 404.588C493.722 404.588 494.202 404.984 494.946 405.776C495.69 406.544 496.062 407.06 496.062 407.324C495.966 407.468 495.798 407.576 495.558 407.648C495.318 407.696 494.97 407.732 494.514 407.756C492.69 411.548 491.25 414.2 490.194 415.712C493.098 418.088 494.55 420.836 494.55 423.956C494.55 425.564 494.226 426.752 493.578 427.52C492.93 428.264 491.85 428.672 490.338 428.744C490.338 427.832 490.23 427.232 490.014 426.944C489.726 426.656 489.186 426.476 488.394 426.404V425.864H490.59C490.95 425.864 491.25 425.792 491.49 425.648C492.018 425.312 492.282 424.544 492.282 423.344C492.282 420.584 491.31 418.076 489.366 415.82C489.918 414.38 490.818 411.476 492.066 407.108H487.782V427.412ZM502.074 415.712C500.514 415.736 498.906 415.904 497.25 416.216L496.314 414.38C497.634 414.524 499.23 414.62 501.102 414.668H509.022L509.67 413.696C509.742 413.6 509.838 413.456 509.958 413.264C510.102 413.072 510.222 412.928 510.318 412.832C510.414 412.736 510.51 412.688 510.606 412.688C510.75 412.688 511.05 412.856 511.506 413.192C511.962 413.528 512.382 413.9 512.766 414.308C513.15 414.692 513.342 414.968 513.342 415.136C513.246 415.52 512.946 415.712 512.442 415.712H502.074ZM512.19 419.42C512.286 419.3 512.394 419.144 512.514 418.952C512.658 418.736 512.778 418.58 512.874 418.484C512.97 418.388 513.066 418.34 513.162 418.34C513.306 418.34 513.606 418.52 514.062 418.88C514.542 419.24 514.974 419.636 515.358 420.068C515.766 420.476 515.97 420.764 515.97 420.932C515.898 421.316 515.61 421.508 515.106 421.508H508.446V433.208C508.446 433.448 508.506 433.616 508.626 433.712C508.746 433.784 509.01 433.82 509.418 433.82H511.47C512.574 433.82 513.234 433.808 513.45 433.784C513.594 433.784 513.69 433.76 513.738 433.712C513.81 433.664 513.894 433.556 513.99 433.388C514.134 433.028 514.386 431.792 514.746 429.68L514.926 428.744H515.358L515.466 433.532C515.778 433.676 515.994 433.832 516.114 434C516.234 434.144 516.294 434.324 516.294 434.54C516.294 435.044 515.958 435.404 515.286 435.62C514.614 435.86 513.33 435.98 511.434 435.98H508.914C508.17 435.98 507.618 435.908 507.258 435.764C506.898 435.62 506.646 435.392 506.502 435.08C506.382 434.792 506.322 434.348 506.322 433.748V421.508H502.578C502.41 424.364 501.966 426.74 501.246 428.636C500.55 430.532 499.422 432.14 497.862 433.46C496.326 434.78 494.202 435.884 491.49 436.772L491.274 436.196C493.554 435.116 495.318 433.916 496.566 432.596C497.814 431.252 498.702 429.716 499.23 427.988C499.758 426.236 500.07 424.076 500.166 421.508H498.474C497.538 421.532 496.578 421.7 495.594 422.012L494.658 420.176C495.978 420.32 497.574 420.416 499.446 420.464H511.506L512.19 419.42Z" fill="black"/>
<path d="M157 446L415.293 446.012" stroke="#9D9D9D"/>
<path d="M14.3347 397C13.448 397 13.0047 396.113 13.0047 394.34C13.0047 392.567 13.448 391.68 14.3347 391.68H17.3747C23.2014 391.68 27.318 390.793 29.7247 389.02C32.258 387.247 33.5247 384.143 33.5247 379.71V276.35C33.5247 271.917 32.1947 268.813 29.5347 267.04C27.0014 265.267 22.948 264.38 17.3747 264.38H14.3347C13.448 264.38 13.0047 263.493 13.0047 261.72C13.0047 259.947 13.448 259.06 14.3347 259.06L47.5847 258.87C59.8714 258.87 68.8647 258.933 74.5647 259.06C87.738 259.313 98.6314 262.353 107.245 268.18C115.858 274.007 120.165 281.797 120.165 291.55C120.165 299.91 116.745 306.687 109.905 311.88C103.065 317.073 94.4514 320.873 84.0647 323.28C96.3514 325.813 106.738 330.057 115.225 336.01C123.711 341.837 127.955 349.5 127.955 359C127.955 366.853 125.611 373.693 120.925 379.52C116.365 385.22 110.221 389.59 102.495 392.63C94.768 395.543 86.218 397 76.8447 397H48.3447H14.3347ZM53.8547 320.62C72.2214 320.62 84.888 317.96 91.8547 312.64C98.948 307.32 102.495 300.037 102.495 290.79C102.495 282.937 99.138 276.603 92.4247 271.79C85.838 266.85 76.4014 264.38 64.1147 264.38C58.668 264.38 54.7414 265.33 52.3347 267.23C50.0547 269.003 48.9147 272.043 48.9147 276.35V320.62H53.8547ZM65.6347 391.68C78.428 391.68 89.0047 388.957 97.3647 383.51C105.851 377.937 110.095 369.703 110.095 358.81C110.095 337.023 91.348 326.13 53.8547 326.13H48.9147V379.71C48.9147 384.27 50.1814 387.437 52.7147 389.21C55.248 390.857 59.3647 391.68 65.0647 391.68H65.6347ZM196.511 279.77C193.344 279.77 190.684 278.693 188.531 276.54C186.377 274.387 185.301 271.727 185.301 268.56C185.301 265.393 186.377 262.733 188.531 260.58C190.684 258.427 193.344 257.35 196.511 257.35C199.677 257.35 202.337 258.427 204.491 260.58C206.644 262.733 207.721 265.393 207.721 268.56C207.721 271.727 206.644 274.387 204.491 276.54C202.337 278.693 199.677 279.77 196.511 279.77ZM176.561 397C175.547 397 175.041 396.113 175.041 394.34C175.041 392.567 175.547 391.68 176.561 391.68H179.031C182.704 391.68 185.617 391.173 187.771 390.16C190.051 389.147 191.191 386.993 191.191 383.7L190.621 325.75C190.621 323.09 189.987 321.127 188.721 319.86C187.581 318.593 186.187 317.833 184.541 317.58C183.021 317.2 180.297 316.757 176.371 316.25C175.611 316.123 175.104 315.933 174.851 315.68C174.724 315.427 174.661 314.857 174.661 313.97C174.661 313.337 174.724 312.767 174.851 312.26C174.977 311.753 175.231 311.437 175.611 311.31C177.511 310.55 187.137 308.143 204.491 304.09L204.301 383.7C204.301 386.993 205.377 389.147 207.531 390.16C209.811 391.173 212.851 391.68 216.651 391.68H219.121C220.007 391.68 220.451 392.567 220.451 394.34C220.451 396.113 220.007 397 219.121 397H176.561ZM329.013 399.66C319.133 399.66 309.38 396.937 299.753 391.49C290.253 385.917 282.4 377.747 276.193 366.98C269.987 356.213 266.883 343.357 266.883 328.41C266.883 313.59 269.987 300.797 276.193 290.03C282.4 279.263 290.253 271.157 299.753 265.71C309.38 260.137 319.133 257.35 329.013 257.35C338.893 257.35 348.583 260.137 358.083 265.71C367.583 271.157 375.437 279.263 381.643 290.03C387.85 300.797 390.953 313.59 390.953 328.41C390.953 343.357 387.85 356.213 381.643 366.98C375.437 377.747 367.583 385.917 358.083 391.49C348.583 396.937 338.893 399.66 329.013 399.66ZM329.013 393.39C336.613 393.39 343.77 390.983 350.483 386.17C357.323 381.23 362.833 373.883 367.013 364.13C371.32 354.25 373.473 342.343 373.473 328.41C373.473 314.603 371.32 302.823 367.013 293.07C362.833 283.317 357.323 276.033 350.483 271.22C343.77 266.28 336.613 263.81 329.013 263.81C321.413 263.81 314.193 266.28 307.353 271.22C300.513 276.033 295.003 283.317 290.823 293.07C286.643 302.823 284.553 314.603 284.553 328.41C284.553 342.343 286.643 354.25 290.823 364.13C295.003 373.883 300.513 381.23 307.353 386.17C314.193 390.983 321.413 393.39 329.013 393.39Z" fill="#0059D6"/>
<mask id="path-6-inside-1_1135_12" fill="white">
<path d="M34.7162 478.534C67.5732 548.292 123.715 604.918 193.829 639.02C263.943 673.121 343.815 682.648 420.197 666.021C496.58 649.393 564.881 607.61 613.772 547.603C662.664 487.595 689.207 412.969 688.999 336.103C688.791 259.238 661.844 184.752 612.628 125C563.412 65.2493 494.886 23.824 418.414 7.59598C341.943 -8.63203 262.124 1.31249 192.195 35.78C122.267 70.2475 66.4329 127.167 33.9541 197.096L35.5774 197.824C67.8872 128.258 123.431 71.6351 192.995 37.3469C262.56 3.05871 341.964 -6.83407 418.038 9.30952C494.111 25.4531 562.281 66.6629 611.241 126.103C660.201 185.544 687.007 259.642 687.215 336.108C687.422 412.574 661.017 486.812 612.38 546.507C563.742 606.203 495.796 647.768 419.811 664.309C343.827 680.85 264.37 671.373 194.62 637.449C124.871 603.525 69.0216 547.193 36.3355 477.797L34.7162 478.534Z"/>
</mask>
<path d="M34.7162 478.534C67.5732 548.292 123.715 604.918 193.829 639.02C263.943 673.121 343.815 682.648 420.197 666.021C496.58 649.393 564.881 607.61 613.772 547.603C662.664 487.595 689.207 412.969 688.999 336.103C688.791 259.238 661.844 184.752 612.628 125C563.412 65.2493 494.886 23.824 418.414 7.59598C341.943 -8.63203 262.124 1.31249 192.195 35.78C122.267 70.2475 66.4329 127.167 33.9541 197.096L35.5774 197.824C67.8872 128.258 123.431 71.6351 192.995 37.3469C262.56 3.05871 341.964 -6.83407 418.038 9.30952C494.111 25.4531 562.281 66.6629 611.241 126.103C660.201 185.544 687.007 259.642 687.215 336.108C687.422 412.574 661.017 486.812 612.38 546.507C563.742 606.203 495.796 647.768 419.811 664.309C343.827 680.85 264.37 671.373 194.62 637.449C124.871 603.525 69.0216 547.193 36.3355 477.797L34.7162 478.534Z" stroke="black" stroke-width="2" mask="url(#path-6-inside-1_1135_12)"/>
</svg>
